<svg version="1.2" xmlns="http://www.w3.org/2000/svg" viewBox="0 0 371 111" width="371" height="111">
	<title>maps-link-image-vert-svg</title>
	<style>
		.s0 { fill: #f5ac00 } 
		.s1 { fill: #1e6d2d } 
	</style>
	<g id="Camada_2">
		<g id="Camada_1-2">
			<path id="Layer" class="s0" d="m200.9 0v53.7h-199.9v-53.7z"/>
			<path id="Layer" class="s0" d="m1 56.7h370v53.7h-370z"/>
			<path id="Layer" class="s1" d="m10.2 47.1v-39.8h8.5l11.8 29.7 11.9-29.7h8.5v39.8h-8.4v-8.4c0-8.5 0-10.4 0.4-13.4l-8.4 21.8h-8l-8.4-21.8q0.2 1.3 0.3 2.7 0.1 1.3 0.2 2.6 0.1 1.4 0.1 2.7 0 1.4 0 2.7v11.1z"/>
			<path id="Layer" fill-rule="evenodd" class="s1" d="m55.5 47.1l14.2-39.8h8.5l14.1 39.8h-9.2l-2.8-8.4h-12.9l-2.8 8.4zm14.5-15.7h7.8l-2.8-8.5q-0.2-0.5-0.3-1-0.2-0.5-0.3-0.9-0.2-0.5-0.3-1-0.1-0.5-0.2-1-0.1 0.5-0.3 1-0.1 0.5-0.2 0.9-0.1 0.5-0.3 1-0.1 0.5-0.3 1z"/>
			<path id="Layer" fill-rule="evenodd" class="s1" d="m105.6 33.9v13.2h-8.7v-39.8h16.1c8.1 0 13.5 5.3 13.5 13.3 0 7.9-5.3 13.3-13.5 13.3zm0-18.8v11h5.5q6.3 0 6.3-5.5 0-5.6-6.3-5.5z"/>
			<path id="Layer" fill-rule="evenodd" class="s1" d="m126 47.1l14.2-39.8h8.5l14.1 39.8h-9.3l-2.8-8.4h-12.8l-2.8 8.4zm14.4-15.7h7.8l-2.8-8.5q-0.2-0.5-0.3-1-0.2-0.5-0.3-0.9-0.1-0.5-0.2-1-0.2-0.5-0.3-1-0.1 0.5-0.2 1-0.1 0.5-0.2 0.9-0.2 0.5-0.3 1-0.2 0.5-0.3 1z"/>
			<path id="Layer" class="s1" d="m179.8 6.6c8.5 0 13.9 4.7 13.9 12.2h-8.6c0-2.8-2.1-4.5-5.4-4.5-3.5 0-5.8 1.6-5.8 4.2 0 2.5 1.2 3.6 4 4.2l6 1.3c7.1 1.4 10.5 4.8 10.5 11.1 0 7.7-6 12.7-15.2 12.7-8.8 0-14.6-4.8-14.6-12.3h8.7c0 2.9 2.1 4.5 6 4.5 3.8 0 6.4-1.5 6.4-4 0-2.3-1-3.4-3.7-3.9l-6.1-1.3c-7.1-1.4-10.7-5.4-10.7-12 0-7.1 6.1-12.2 14.6-12.2z"/>
			<path id="Layer" class="s1" d="m18.9 64v39.8h-8.7v-39.8z"/>
			<path id="Layer" class="s1" d="m27.2 103.8v-39.8h8.6l16.8 25.3v-25.3h8.6v39.7h-8.6l-16.8-25.2v25.3z"/>
			<path id="Layer" class="s1" d="m66.4 64h31.2v8h-11.2v31.7h-8.7v-31.6h-11.3z"/>
			<path id="Layer" class="s1" d="m102.8 103.8v-39.8h25.3v8h-16.6v7.8h14.7v7.6h-14.7v8.2h16.6v8.1z"/>
			<path id="Layer" fill-rule="evenodd" class="s1" d="m135.2 103.8v-39.8h15.4c9.7 0 15.1 4.7 15.1 12.9 0 5.1-2.2 8.8-6.6 11.1l7 15.7h-9.5l-6-13.9h-6.7v13.9zm8.7-21.5h6.6c3.8 0 6-1.9 6-5.3 0-3.4-2.1-5.2-6-5.2h-6.6z"/>
			<path id="Layer" fill-rule="evenodd" class="s1" d="m168.5 103.8l14.2-39.8h8.5l14.1 39.7h-9.2l-2.8-8.3h-12.8l-2.9 8.3zm14.5-15.6h7.8l-2.8-8.5q-0.2-0.5-0.3-1-0.2-0.5-0.3-0.9-0.2-0.5-0.3-1-0.1-0.5-0.2-1-0.1 0.5-0.2 1-0.1 0.5-0.3 1-0.1 0.4-0.3 0.9-0.1 0.5-0.3 1z"/>
			<path id="Layer" class="s1" d="m203.4 64h31.3l-0.1 8h-11.2v31.7h-8.7v-31.6h-11.3z"/>
			<path id="Layer" class="s1" d="m248.6 103.8h-8.7v-39.8h8.7z"/>
			<path id="Layer" class="s1" d="m253.2 64h9.3l7.5 20.1q0.4 1 0.7 2.1 0.4 1 0.7 2.1 0.3 1 0.6 2.1 0.3 1 0.5 2.1c1-3.8 1.8-6 2.7-8.4l7.4-20.1h9.1l-14.6 39.7h-9z"/>
			<path id="Layer" fill-rule="evenodd" class="s1" d="m311.4 104.4c-11.5 0-19.4-8.4-19.4-20.5 0-12.1 8-20.6 19.5-20.6 11.4 0 19.5 8.4 19.5 20.5 0 12.2-8 20.6-19.6 20.6zm0.1-32.7c-6.4 0-10.3 4.6-10.3 12.1 0 7.6 3.9 12.2 10.3 12.2 6.5 0 10.3-4.7 10.3-12.2 0-7.5-3.9-12.1-10.3-12.1z"/>
			<path id="Layer" class="s1" d="m349.4 63.3c8.6 0 14 4.7 14 12.2h-8.7c0-2.8-2.1-4.5-5.4-4.5-3.5 0-5.8 1.6-5.8 4.2 0 2.5 1.3 3.6 4 4.2l6 1.3c7.1 1.4 10.5 4.8 10.5 11.1 0 7.7-6 12.7-15.1 12.7-8.9 0-14.7-4.8-14.7-12.3h8.7c0 2.9 2.1 4.5 6 4.5 3.8 0 6.4-1.5 6.4-4.1 0-2.2-1-3.3-3.7-3.8l-6-1.3c-7.1-1.4-10.8-5.4-10.8-12 0-7.1 6.1-12.2 14.6-12.2z"/>
			<path id="Layer" class="s0" d="m224.1 1.7l-0.7 1.3-0.7 0.1-0.2 0.3h-0.9l-0.1 0.4-0.3 0.3h-0.8l-0.3-0.3-0.7-0.2-0.6-0.2 0.8 0.8 0.2 1.5-0.1 0.8-1.3 0.5h-2l-0.5-0.6v-0.9l-0.6 0.5h-0.2l-0.2-0.3h-0.2v0.2h-1.7l-0.2 1h0.6v0.5h-1v0.7l0.5 0.6v1.3l0.2 1.2-0.7 2h-1.1l-0.6 0.6h-0.7l-0.3 0.5h-0.7l-0.1 0.8h-0.4v1.5l-0.1 0.2h-0.2-0.3v1.4l0.8 0.4v0.5l0.6 1.1h0.7l0.1 0.5h1l0.2-0.3 0.7-0.2v1.8h2.7v-0.4l0.1-0.2 0.1 0.2 0.3-0.1v-0.4h0.5l0.1-0.4 0.4-0.3 0.2 0.1 0.6-0.4h0.5l0.4 0.1 0.2 0.3-0.2 0.6v0.7l0.5 0.7 0.6 0.5 1.1 0.6 1.6 0.6 2.1 0.5 0.1 0.5 0.4 0.1v0.7h-0.2l-0.3 0.2 0.4 0.6 0.1 0.9h2l0.1 0.5 0.1 0.3 0.5 0.4 0.3 1 0.3 0.2-0.2 0.5v3.4l-0.1 0.8 0.2 0.2h2.3l0.1 0.8h0.5v1.5l1.1-0.3v2.2 0.2h0.7v0.6 0.5l-0.3 0.4-0.7 0.4h0.4l-1 0.2v0.5l-0.7 0.4-0.6 0.8-0.1 0.6-1.3 1.2 1 0.1 0.7 0.4 0.1 0.4 0.7 0.4h0.7l0.5 0.2v0.5l0.3 0.6 0.3 0.1 0.1 0.9-0.2 0.1-0.1 0.5 0.6-0.1 0.3-0.4 0.4-0.2 0.2-0.7 0.2-0.5 1.3-0.7 0.3-0.6 0.4-0.6 0.4-0.4 0.5-1.1v-0.1l0.3-0.1 0.2-0.5 0.6-0.5v-2.6l0.4-0.5v-0.1l0.3-0.1 0.3-0.2 0.7-0.7 0.1-0.6 0.7-0.2 1-0.2 0.2-0.1 0.1 0.1h0.5l0.1-0.4h0.6l0.1-0.4h2.5l0.2-0.1 0.1-0.4 0.9-0.2 0.2-0.3v-0.7l0.1-0.1 0.2-0.1h0.4l0.1-0.3v-0.4l0.2-0.3 0.5-0.5 0.1-0.8v-0.6l0.2-0.5-0.1-0.4h0.4l0.4-0.1v-0.9l0.1-0.4 0.1-0.7 0.2-0.4 0.5-0.3v-2.8l-0.3-0.4 0.4-0.1 0.5-0.3 0.3-0.3 0.2-0.2v-0.5l0.4-0.2 0.1-0.4 0.6-0.5 0.6-0.8 0.5-0.1v-0.5l0.5-0.2 0.4-0.7 0.1-0.4 0.3-0.2-0.5-0.6v-1.1h0.8v-1.3-0.6l-0.3-0.3-0.1-1h-1.9l-0.8-0.7q-0.4-0.5-0.9-0.9-0.5-0.4-1-0.6-0.6-0.3-1.2-0.4-0.6-0.2-1.2-0.2v-0.3l-0.7-0.2-2-0.5-0.2 0.3-0.4-0.1-0.7-0.8-0.4-0.1-0.7-0.4-0.3-0.1-0.6-0.1-0.5-0.6h-1.6l-0.2 0.7-0.3 0.3-0.3-0.2v-0.6l0.5-0.7h-1.4l-0.2-0.3h-0.6l-0.2-0.7 0.4-0.5v-0.4l-0.4-0.6-0.7-0.1-0.7-2.4h-0.3l-1.3 2.3-2.5-0.2-0.5 0.1h-0.9v0.7l-1.8 0.1-0.4 0.3h-1v0.1l-1.2-0.1-0.1-0.4-0.7-0.5 0.3-3-0.3-0.1v-0.5l-0.1-0.5z"/>
		</g>
	</g>
</svg>