<?xml version="1.0" standalone="no"?>
<!DOCTYPE svg PUBLIC "-//W3C//DTD SVG 20010904//EN"
 "http://www.w3.org/TR/2001/REC-SVG-20010904/DTD/svg10.dtd">
<svg version="1.0" xmlns="http://www.w3.org/2000/svg"
 width="300.000000pt" height="300.000000pt" viewBox="0 0 300.000000 300.000000"
 preserveAspectRatio="xMidYMid meet">
<metadata>
Created by potrace 1.14, written by Peter Selinger 2001-2017
</metadata>
<g transform="translate(0.000000,300.000000) scale(0.100000,-0.100000)"
fill="#000000" stroke="none">
<path d="M1440 2903 c-371 -49 -637 -177 -878 -421 -210 -213 -352 -507 -390
-810 -12 -96 -5 -312 12 -411 60 -333 254 -663 505 -855 216 -166 465 -271
700 -296 85 -9 339 -6 386 4 17 4 56 11 88 17 272 48 584 236 779 469 110 132
210 315 261 476 45 143 61 247 61 414 1 177 -5 234 -40 368 -137 526 -575 932
-1109 1027 -82 15 -315 26 -375 18z"/>
</g>
</svg>
